			<svg
				class="Zi Zi--WeChat Login-socialIcon"
				fill="#60c84d"
				viewBox="0 0 24 24"
				width="40"
				height="40"
			>
				<path
					d="M2.224 21.667s4.24-1.825 4.788-2.056C15.029 23.141 22 17.714 22 11.898 22 6.984 17.523 3 12 3S2 6.984 2 11.898c0 1.86.64 3.585 1.737 5.013-.274.833-1.513 4.756-1.513 4.756zm5.943-9.707c.69 0 1.25-.569 1.25-1.271a1.26 1.26 0 0 0-1.25-1.271c-.69 0-1.25.569-1.25 1.27 0 .703.56 1.272 1.25 1.272zm7.583 0c.69 0 1.25-.569 1.25-1.271a1.26 1.26 0 0 0-1.25-1.271c-.69 0-1.25.569-1.25 1.27 0 .703.56 1.272 1.25 1.272z"
					fill-rule="evenodd"
				></path>
			</svg>